<?xml version="1.0" standalone="no"?>
<!DOCTYPE svg PUBLIC "-//W3C//DTD SVG 20010904//EN"
 "http://www.w3.org/TR/2001/REC-SVG-20010904/DTD/svg10.dtd">
<svg version="1.0" xmlns="http://www.w3.org/2000/svg"
 width="556.000000pt" height="556.000000pt" viewBox="0 0 556.000000 556.000000"
 preserveAspectRatio="xMidYMid meet">
<metadata>
Created by potrace 1.14, written by Peter Selinger 2001-2017
</metadata>
<g transform="translate(0.000000,556.000000) scale(0.100000,-0.100000)"
fill="#000000" stroke="none">
<path d="M2785 4734 c-57 -14 -96 -43 -275 -203 -161 -143 -994 -885 -1135
-1011 -22 -19 -64 -58 -95 -86 -30 -27 -158 -142 -285 -254 -258 -229 -249
-220 -275 -275 -71 -146 47 -335 209 -337 86 0 114 16 285 168 l161 144 5
-953 5 -952 28 -47 c28 -48 64 -80 111 -98 18 -7 458 -10 1312 -10 1249 0
1285 0 1321 19 21 10 50 32 65 48 61 64 58 14 58 1042 0 517 3 942 8 944 4 3
75 -56 157 -130 83 -74 168 -143 190 -154 48 -22 132 -25 179 -5 45 19 104 72
126 115 40 80 34 182 -15 247 -22 29 -508 463 -1564 1398 -222 197 -419 364
-435 371 -37 15 -113 25 -141 19z m-76 -1712 c72 -36 76 -49 79 -284 3 -229 0
-247 -49 -294 l-30 -29 -259 0 -258 0 -27 25 c-52 49 -55 63 -55 288 0 201 1
210 23 243 42 64 65 69 317 69 194 0 230 -2 259 -18z m771 0 c22 -12 44 -35
58 -63 22 -42 23 -52 20 -249 -3 -228 -7 -241 -71 -280 -29 -18 -52 -20 -271
-20 -225 0 -241 1 -273 21 -59 37 -63 53 -63 298 l0 219 27 33 c46 55 66 58
313 59 199 0 229 -2 260 -18z m-770 -704 c74 -39 80 -60 80 -296 0 -231 -6
-255 -69 -294 -34 -22 -48 -23 -258 -26 -204 -3 -226 -2 -267 17 -81 35 -86
52 -86 301 0 243 5 261 77 299 35 18 58 20 258 21 210 0 223 -1 265 -22z m776
-4 c67 -49 69 -57 72 -272 4 -216 -2 -254 -45 -294 -46 -42 -81 -48 -302 -48
-233 0 -273 10 -311 72 -18 30 -20 50 -20 249 0 208 1 217 23 249 45 67 64 71
324 68 216 -3 233 -4 259 -24z"/>
<path d="M1388 3 c765 -2 2019 -2 2785 0 765 1 139 2 -1393 2 -1532 0 -2158
-1 -1392 -2z"/>
</g>
</svg>
